<?xml version="1.0" standalone="no"?>
<!DOCTYPE svg PUBLIC "-//W3C//DTD SVG 20010904//EN"
 "http://www.w3.org/TR/2001/REC-SVG-20010904/DTD/svg10.dtd">
<svg version="1.0" xmlns="http://www.w3.org/2000/svg"
 width="460.000000pt" height="460.000000pt" viewBox="0 0 460.000000 460.000000"
 preserveAspectRatio="xMidYMid meet">
<metadata>
Created by potrace 1.14, written by Peter Selinger 2001-2017
</metadata>
<g transform="translate(0.000000,460.000000) scale(0.100000,-0.100000)"
fill="#000000" stroke="none">
<path d="M0 2300 l0 -2300 1499 0 c1190 0 1500 3 1504 13 4 9 7 9 18 0 17 -17
40 -17 36 0 -1 7 10 13 27 15 16 2 35 10 43 18 8 8 23 14 34 14 10 0 19 4 19
10 0 5 11 12 25 16 14 3 25 9 25 13 0 10 71 32 82 25 4 -3 8 2 8 10 0 11 9 16
29 16 16 0 31 5 33 12 3 7 32 14 71 16 37 2 67 8 67 13 0 12 173 12 186 0 5
-5 64 -11 132 -13 103 -2 122 -1 122 12 0 12 2 12 9 1 6 -9 43 -15 132 -18 71
-3 127 -10 131 -16 8 -14 68 -13 77 1 3 6 32 13 64 16 32 2 63 9 71 15 7 6 45
14 84 17 l72 7 0 2193 0 2194 -2300 0 -2300 0 0 -2300z m2390 1909 c0 -6 -9
-13 -20 -16 -11 -3 -20 -12 -20 -19 0 -8 -5 -14 -10 -14 -8 0 -9 34 -1 58 3 8
51 0 51 -9z m88 -31 c-6 -18 -28 -21 -28 -4 0 9 7 16 16 16 9 0 14 -5 12 -12z
m-153 -28 c3 -5 -1 -10 -9 -10 -9 0 -16 5 -16 10 0 6 4 10 9 10 6 0 13 -4 16
-10z m-25 -30 c0 -5 7 -10 15 -10 8 0 15 -7 15 -15 0 -8 -7 -15 -15 -15 -8 0
-15 7 -15 15 0 8 -7 15 -16 15 -8 0 -12 5 -9 10 3 6 10 10 16 10 5 0 9 -4 9
-10z m85 0 c-3 -5 -10 -10 -16 -10 -5 0 -9 5 -9 10 0 6 7 10 16 10 8 0 12 -4
9 -10z m25 -30 c0 -5 -4 -10 -10 -10 -5 0 -10 5 -10 10 0 6 5 10 10 10 6 0 10
-4 10 -10z m-80 -85 c0 -8 -7 -15 -15 -15 -8 0 -15 7 -15 15 0 8 7 15 15 15 8
0 15 -7 15 -15z m140 0 c0 -8 -4 -15 -10 -15 -5 0 -10 7 -10 15 0 8 5 15 10
15 6 0 10 -7 10 -15z m60 -6 c0 -5 -4 -9 -10 -9 -5 0 -10 7 -10 16 0 8 5 12
10 9 6 -3 10 -10 10 -16z m-232 -27 c2 -7 -3 -12 -12 -12 -9 0 -16 -7 -16 -15
0 -8 -7 -15 -15 -15 -8 0 -15 -7 -15 -15 0 -8 -7 -15 -15 -15 -8 0 -15 7 -15
15 0 8 6 15 13 15 15 0 47 35 47 51 0 14 23 6 28 -9z m-88 -92 c0 -5 -2 -10
-4 -10 -3 0 -8 5 -11 10 -3 6 -1 10 4 10 6 0 11 -4 11 -10z m60 -55 c0 -8 -6
-15 -14 -15 -8 0 -16 -6 -19 -12 -2 -8 -8 -9 -13 -4 -5 5 -4 11 4 13 6 3 12
11 12 19 0 8 7 14 15 14 8 0 15 -7 15 -15z m0 -65 c0 -20 -5 -30 -15 -30 -10
0 -15 -10 -15 -30 0 -20 -5 -30 -15 -30 -9 0 -15 9 -15 25 0 16 -6 25 -15 25
-8 0 -15 -4 -15 -10 0 -5 -7 -10 -15 -10 -21 0 -18 11 9 37 14 14 30 20 43 17
15 -4 22 0 26 15 8 32 27 25 27 -9z m700 -80 c0 -6 35 -10 85 -10 l85 0 0 -29
c0 -16 -6 -31 -15 -35 -8 -3 -14 -11 -13 -18 2 -7 -3 -12 -9 -10 -7 1 -13 -8
-13 -20 0 -16 3 -19 11 -11 6 6 18 9 25 6 8 -3 17 2 20 11 9 22 114 23 114 1
0 -8 6 -15 14 -15 8 0 17 -11 20 -24 3 -14 15 -28 26 -31 21 -7 29 -55 10 -55
-5 0 -10 -7 -10 -15 0 -8 -7 -15 -15 -15 -8 0 -15 -7 -15 -15 0 -9 -7 -18 -15
-21 -9 -4 -15 -19 -15 -39 0 -40 14 -53 30 -28 8 15 9 13 4 -9 -4 -20 -2 -29
10 -34 9 -3 16 -17 16 -29 0 -28 19 -44 21 -18 1 17 2 17 6 1 6 -23 63 -25 63
-3 0 8 5 15 10 15 6 0 10 -27 10 -60 0 -56 -11 -77 -24 -47 -3 6 -5 -4 -4 -23
2 -55 -1 -70 -13 -70 -6 0 -9 19 -8 48 3 49 -4 72 -22 72 -6 0 -8 -4 -5 -9 3
-5 -1 -12 -10 -15 -25 -10 -84 -7 -84 4 0 6 -7 10 -15 10 -8 0 -15 6 -15 14 0
16 -30 26 -77 26 -17 0 -35 5 -38 10 -8 12 -52 13 -59 1 -4 -5 -30 -12 -59
-16 -28 -4 -54 -11 -57 -16 -3 -4 -21 -11 -40 -14 -53 -9 -69 -48 -25 -59 14
-4 25 -11 25 -16 0 -15 70 -12 71 3 0 8 2 8 6 -2 5 -11 7 -11 14 0 11 19 200
20 207 2 2 -7 9 -13 16 -13 7 0 23 -9 36 -20 13 -11 26 -20 30 -20 4 0 11 -8
14 -17 15 -39 31 -63 43 -63 9 0 13 -15 13 -45 0 -31 4 -44 13 -42 9 1 13 -34
15 -144 3 -122 1 -149 -12 -162 -11 -10 -16 -34 -16 -68 0 -36 -5 -55 -16 -64
-12 -8 -17 -29 -17 -78 -1 -48 -4 -67 -14 -67 -9 0 -13 -17 -13 -60 0 -47 -3
-60 -15 -60 -8 0 -15 9 -15 20 0 11 -5 20 -11 20 -6 0 -9 7 -5 15 3 8 1 15 -4
15 -6 0 -10 11 -10 25 0 14 -5 25 -11 25 -7 0 -18 8 -24 17 -12 16 -14 13 -20
-21 -4 -21 -18 -57 -31 -80 -13 -23 -24 -50 -24 -62 0 -24 -35 -64 -55 -64 -8
0 -15 -6 -15 -12 0 -9 -4 -8 -10 2 -8 13 -10 12 -10 -2 0 -10 -7 -18 -15 -18
-11 0 -15 -11 -15 -40 l0 -40 -45 0 c-33 0 -45 -4 -45 -15 0 -8 -4 -15 -10
-15 -5 0 -13 -12 -16 -26 -4 -16 -9 -22 -14 -14 -5 8 -9 7 -13 -4 -4 -9 -18
-16 -32 -16 -16 0 -25 -6 -25 -15 0 -8 5 -15 10 -15 6 0 10 -4 10 -10 0 -5
-23 -10 -50 -10 -35 0 -52 -4 -56 -15 -3 -8 -21 -17 -40 -21 -19 -3 -31 -10
-28 -15 3 -5 -9 -9 -26 -9 -17 0 -29 4 -26 9 3 4 -15 11 -40 15 -52 7 -101 48
-106 88 -2 14 -11 33 -21 42 -9 10 -17 24 -17 32 0 8 -4 13 -9 10 -5 -3 -12
10 -15 29 -4 19 -11 35 -16 35 -6 0 -10 11 -10 25 0 16 -6 25 -15 25 -8 0 -15
9 -15 20 0 11 -7 20 -15 20 -8 0 -15 6 -15 14 0 8 -5 16 -11 18 -6 2 -13 25
-16 51 -3 25 -9 44 -13 42 -11 -7 -20 21 -20 65 0 21 -4 40 -10 42 -6 2 -11
90 -14 216 -4 178 -2 214 10 219 10 4 14 23 14 72 0 89 11 172 21 165 5 -3 9
-1 9 5 0 5 -5 11 -11 13 -6 2 -9 28 -6 68 2 46 6 59 11 43 6 -16 14 -20 34
-17 15 3 29 9 30 15 5 12 92 12 92 0 0 -5 14 -12 30 -16 17 -4 30 -11 30 -16
0 -5 11 -9 25 -9 21 0 25 5 25 30 0 17 -4 30 -10 30 -5 0 -12 11 -16 25 -4 17
-13 25 -28 25 -22 0 -58 19 -41 21 6 1 -12 5 -40 9 -73 11 -95 4 -95 -31 0
-19 -5 -29 -15 -29 -12 0 -15 13 -15 60 0 47 3 60 15 60 8 0 15 7 15 15 0 8 5
15 10 15 17 0 50 39 50 59 0 10 7 21 15 25 8 3 15 12 15 21 0 8 5 15 11 15 5
0 8 4 4 9 -3 5 3 12 14 16 15 4 21 19 26 60 5 38 12 55 22 55 8 0 11 4 8 10
-3 5 -2 17 3 25 7 13 10 12 20 -10 16 -34 32 -32 32 5 0 21 5 30 16 30 8 0 22
7 30 15 12 12 44 15 157 14 94 -1 143 3 145 10 5 14 92 15 92 1z m-760 -56 c0
-9 -5 -14 -12 -12 -18 6 -21 28 -4 28 9 0 16 -7 16 -16z m180 -144 c0 -5 -7
-10 -15 -10 -8 0 -15 5 -15 10 0 6 7 10 15 10 8 0 15 -4 15 -10z m-93 -326
c-3 -3 -12 -4 -19 -1 -8 3 -5 6 6 6 11 1 17 -2 13 -5z m1575 -351 c2 -10 2
-55 0 -100 -3 -62 -8 -83 -18 -83 -10 0 -14 -13 -14 -45 0 -33 -4 -45 -15 -45
-9 0 -15 -9 -15 -24 0 -39 -53 -50 -65 -13 l-8 22 -4 -22 c-2 -12 1 -32 8 -45
9 -16 9 -23 0 -26 -6 -2 -11 -9 -11 -16 0 -23 -40 -46 -80 -46 -38 0 -40 2
-40 30 0 21 -5 30 -16 30 -9 0 -14 5 -11 13 20 46 34 67 45 67 6 0 12 8 12 18
0 14 2 15 10 2 6 -10 10 -11 10 -2 0 6 9 12 20 12 11 0 20 6 20 14 0 8 4 16
10 18 5 2 12 35 16 73 5 55 12 75 30 92 16 14 19 23 11 26 -7 3 1 6 16 6 17 1
30 8 34 19 16 41 47 55 55 25z m-473 -1060 c0 -52 -4 -80 -8 -68 -6 15 -9 9
-14 -25 -3 -25 -11 -46 -16 -48 -17 -6 -13 -29 6 -36 15 -6 12 -11 -15 -34
-21 -18 -32 -37 -32 -54 0 -14 -6 -29 -12 -32 -10 -5 -10 -7 0 -12 6 -3 12
-14 12 -25 0 -10 6 -18 13 -17 7 2 12 -8 13 -22 2 -52 4 -60 14 -60 6 0 10 7
10 15 0 8 6 15 14 15 8 0 17 13 21 29 4 20 14 31 31 35 15 4 24 14 24 26 0 11
7 20 15 20 8 0 15 7 15 15 0 9 6 18 14 21 8 3 17 16 20 30 9 34 26 30 26 -6 0
-20 -5 -30 -15 -30 -8 0 -14 -3 -14 -7 4 -25 -3 -43 -16 -43 -8 0 -15 -7 -15
-15 0 -9 -9 -15 -24 -15 -19 0 -26 -7 -31 -30 -4 -16 -10 -30 -15 -30 -5 0
-11 -13 -15 -30 -4 -16 -11 -30 -16 -30 -5 0 -9 -7 -9 -15 0 -8 -5 -15 -11
-15 -5 0 -7 -4 -4 -10 3 -5 1 -10 -4 -10 -6 0 -11 -7 -11 -15 0 -9 -6 -18 -14
-21 -8 -3 -17 -16 -20 -30 -4 -13 -11 -24 -16 -24 -6 0 -10 -7 -10 -15 0 -8
-7 -15 -15 -15 -8 0 -15 -7 -15 -15 0 -8 -7 -15 -15 -15 -8 0 -15 -7 -15 -15
0 -8 -7 -15 -15 -15 -8 0 -15 -5 -15 -11 0 -19 -130 -139 -151 -139 -10 0 -19
-4 -19 -10 0 -5 -13 -10 -30 -10 -16 0 -30 5 -30 10 0 6 -45 10 -115 10 -94 0
-117 3 -121 15 -4 8 -17 15 -30 15 -15 0 -24 6 -24 15 0 8 -7 15 -15 15 -8 0
-15 7 -15 15 0 8 -7 15 -15 15 -8 0 -15 7 -15 15 0 8 -7 15 -15 15 -8 0 -15 9
-15 20 0 11 -7 23 -15 26 -8 4 -15 12 -15 19 0 7 -7 15 -15 19 -8 3 -15 13
-15 21 0 9 -5 13 -10 10 -6 -3 -13 1 -16 9 -6 16 -35 23 -33 9 4 -26 -2 -73
-10 -73 -5 0 -12 20 -16 45 -3 25 -10 43 -16 40 -5 -4 -9 1 -9 10 0 9 5 13 10
10 6 -4 10 8 11 27 2 45 -1 62 -12 66 -5 2 -9 19 -9 38 0 19 -3 34 -7 34 -5 0
-7 36 -5 81 3 58 0 79 -8 74 -7 -5 -10 31 -8 127 3 129 4 133 26 136 12 2 22
-1 22 -6 0 -9 37 -25 53 -23 4 1 7 -4 7 -9 0 -6 15 -10 34 -10 19 0 41 -7 50
-15 8 -8 32 -15 55 -15 30 0 41 -4 41 -16 0 -13 23 -15 180 -13 99 1 180 5
180 9 0 3 6 7 13 8 32 4 95 10 118 11 20 1 28 8 33 26 4 14 11 25 16 25 6 0
10 7 10 16 0 10 6 14 15 10 8 -3 15 -1 15 5 0 6 7 8 15 5 9 -3 18 1 21 9 4 8
24 18 45 21 21 4 39 10 39 15 0 5 5 9 10 9 6 0 10 -35 9 -87z m268 -113 c1
-35 -3 -50 -12 -50 -8 0 -13 17 -14 50 0 34 3 50 12 50 8 0 13 -18 14 -50z
m-1077 -682 c0 -5 -7 -8 -16 -8 -8 0 -12 5 -9 10 3 6 -1 10 -9 10 -10 0 -16 9
-16 21 0 21 0 21 25 -2 13 -13 25 -27 25 -31z"/>
<path d="M3050 3546 c0 -2 7 -9 15 -16 12 -10 15 -10 15 4 0 9 -7 16 -15 16
-8 0 -15 -2 -15 -4z"/>
<path d="M3030 3510 c0 -13 5 -18 15 -14 8 4 15 12 15 20 0 8 -7 14 -15 14 -8
0 -15 -9 -15 -20z"/>
<path d="M3000 3480 c0 -5 5 -10 10 -10 6 0 10 5 10 10 0 6 -4 10 -10 10 -5 0
-10 -4 -10 -10z"/>
<path d="M2354 3025 c-3 -14 -10 -22 -16 -19 -5 3 -12 -3 -15 -15 -3 -12 -9
-21 -14 -21 -5 0 -9 -13 -9 -30 0 -19 5 -30 14 -30 8 0 17 -6 19 -12 4 -10 6
-10 6 0 1 7 16 12 39 12 48 0 58 8 66 52 4 20 12 38 18 40 24 8 -31 48 -67 48
-29 0 -36 -4 -41 -25z"/>
<path d="M2910 2986 c0 -7 -9 -16 -21 -19 -29 -8 -14 -27 22 -27 24 0 29 -4
29 -25 0 -18 7 -26 24 -31 47 -11 61 -2 64 44 2 28 8 42 18 42 8 0 14 7 14 15
0 12 -15 15 -75 15 -57 0 -75 -3 -75 -14z"/>
<path d="M3086 2955 c4 -8 10 -12 16 -9 5 3 12 -3 15 -15 3 -12 11 -21 18 -21
8 0 10 -9 7 -26 -3 -19 -1 -25 7 -20 6 4 11 2 11 -3 0 -6 16 -11 35 -11 24 0
35 5 35 15 0 19 -31 56 -42 49 -4 -3 -8 2 -8 10 0 10 -9 16 -26 16 -14 0 -23
4 -20 9 3 5 -4 11 -17 15 -33 9 -37 7 -31 -9z"/>
<path d="M2766 2885 c-9 -36 0 -46 29 -33 25 11 34 28 15 28 -5 0 -10 7 -10
15 0 25 -27 17 -34 -10z"/>
<path d="M2740 2851 c0 -6 4 -13 10 -16 6 -3 7 1 4 9 -7 18 -14 21 -14 7z"/>
<path d="M3245 2840 c3 -5 8 -10 11 -10 2 0 4 5 4 10 0 6 -5 10 -11 10 -5 0
-7 -4 -4 -10z"/>
<path d="M2820 2810 c0 -5 7 -10 15 -10 8 0 15 5 15 10 0 6 -7 10 -15 10 -8 0
-15 -4 -15 -10z"/>
<path d="M3200 2810 c0 -5 7 -10 15 -10 8 0 15 5 15 10 0 6 -7 10 -15 10 -8 0
-15 -4 -15 -10z"/>
<path d="M2710 2750 c0 -11 -5 -20 -11 -20 -8 0 -8 -5 1 -15 7 -8 10 -30 8
-50 -4 -36 5 -45 43 -45 15 0 19 -7 19 -31 0 -17 4 -28 10 -24 6 3 10 -1 10
-9 0 -9 -4 -16 -10 -16 -5 0 -10 -11 -10 -25 0 -30 16 -33 25 -5 3 11 13 20
21 20 21 0 18 78 -5 122 -11 19 -18 38 -15 40 2 3 -2 11 -11 18 -8 7 -15 20
-15 30 0 18 -19 30 -46 30 -8 0 -14 -9 -14 -20z"/>
<path d="M2650 2726 c0 -2 7 -6 15 -10 8 -3 15 -1 15 4 0 6 -7 10 -15 10 -8 0
-15 -2 -15 -4z"/>
<path d="M2613 2562 c-13 -2 -23 -10 -23 -18 0 -11 15 -14 60 -14 52 0 60 2
60 19 0 16 -7 19 -37 18 -21 -1 -48 -3 -60 -5z"/>
<path d="M2426 2284 c-3 -8 -2 -13 3 -9 5 3 12 -8 16 -24 3 -16 13 -32 21 -35
19 -7 64 3 64 15 0 5 13 9 29 9 16 0 42 7 57 15 l29 15 -42 0 c-32 0 -43 4
-43 15 0 22 -125 22 -134 -1z"/>
<path d="M2686 2285 c-3 -8 -12 -15 -21 -15 -8 0 -15 -8 -14 -17 0 -10 3 -13
5 -7 7 16 54 -6 54 -24 0 -10 21 -13 85 -11 47 1 85 6 85 11 0 5 -8 17 -18 28
-13 15 -33 19 -89 21 -40 1 -70 6 -67 10 2 4 0 10 -5 13 -5 3 -11 -1 -15 -9z"/>
<path d="M3381 1734 c0 -11 3 -14 6 -6 3 7 2 16 -1 19 -3 4 -6 -2 -5 -13z"/>
<path d="M3295 1360 c-11 -17 5 -32 21 -19 7 6 11 15 8 20 -7 12 -21 11 -29
-1z"/>
<path d="M4445 160 c3 -5 15 -10 26 -10 11 0 22 -7 25 -15 4 -9 19 -15 40 -15
24 0 34 -5 34 -15 0 -8 7 -15 15 -15 8 0 15 7 15 15 0 8 -6 15 -14 15 -8 0
-16 5 -18 11 -2 6 -16 12 -31 12 -15 1 -27 8 -27 15 0 7 -14 12 -36 12 -21 0
-33 -4 -29 -10z"/>
<path d="M3997 149 c-37 -21 -24 -27 85 -43 10 -1 21 -5 24 -9 4 -4 29 -7 56
-7 l49 0 -18 25 c-10 13 -31 27 -48 29 -74 12 -132 14 -148 5z"/>
<path d="M4400 45 c0 -8 5 -15 10 -15 6 0 10 7 10 15 0 8 -4 15 -10 15 -5 0
-10 -7 -10 -15z"/>
<path d="M4430 15 c0 -8 5 -15 10 -15 6 0 10 7 10 15 0 8 -4 15 -10 15 -5 0
-10 -7 -10 -15z"/>
</g>
</svg>
